{
    "asset" : {
        "generator" : "Khronos glTF Blender I/O v1.7.33",
        "version" : "2.0"
    },
    "scene" : 0,
    "scenes" : [
        {
            "name" : "Manual_bike_import",
            "nodes" : [
                0
            ]
        }
    ],
    "nodes" : [
        {
            "mesh" : 0,
            "name" : "magnet",
            "rotation" : [
                0,
                0.7055413722991943,
                0,
                0.7086687088012695
            ],
            "translation" : [
                0.0012701749801635742,
                0,
                -0.0036934316158294678
            ]
        }
    ],
    "materials" : [
        {
            "doubleSided" : true,
            "name" : "Computer_MAT",
            "pbrMetallicRoughness" : {
                "baseColorFactor" : [
                    1,
                    1,
                    1,
                    1
                ],
                "metallicFactor" : 0,
                "roughnessFactor" : 0.5
            }
        }
    ],
    "meshes" : [
        {
            "name" : "magnet",
            "primitives" : [
                {
                    "attributes" : {
                        "POSITION" : 0,
                        "NORMAL" : 1,
                        "TEXCOORD_0" : 2
                    },
                    "indices" : 3,
                    "material" : 0
                }
            ]
        }
    ],
    "accessors" : [
        {
            "bufferView" : 0,
            "componentType" : 5126,
            "count" : 310,
            "max" : [
                -0.8813381195068359,
                1.8461685180664062,
                56.13349533081055
            ],
            "min" : [
                -2.2264742851257324,
                -0.6744384765625,
                54.679656982421875
            ],
            "type" : "VEC3"
        },
        {
            "bufferView" : 1,
            "componentType" : 5126,
            "count" : 310,
            "type" : "VEC3"
        },
        {
            "bufferView" : 2,
            "componentType" : 5126,
            "count" : 310,
            "type" : "VEC2"
        },
        {
            "bufferView" : 3,
            "componentType" : 5123,
            "count" : 1836,
            "type" : "SCALAR"
        }
    ],
    "bufferViews" : [
        {
            "buffer" : 0,
            "byteLength" : 3720,
            "byteOffset" : 0
        },
        {
            "buffer" : 0,
            "byteLength" : 3720,
            "byteOffset" : 3720
        },
        {
            "buffer" : 0,
            "byteLength" : 2480,
            "byteOffset" : 7440
        },
        {
            "buffer" : 0,
            "byteLength" : 3672,
            "byteOffset" : 9920
        }
    ],
    "buffers" : [
        {
            "byteLength" : 13592,
            "uri" : "roda.bin"
        }
    ]
}
