{
    "asset" : {
        "generator" : "Khronos glTF Blender I/O v1.7.33",
        "version" : "2.0"
    },
    "scene" : 0,
    "scenes" : [
        {
            "name" : "Scene",
            "nodes" : [
                0
            ]
        }
    ],
    "nodes" : [
        {
            "mesh" : 0,
            "name" : "Sphere",
            "scale" : [
                0.20000000298023224,
                0.20000000298023224,
                0.20000000298023224
            ],
            "translation" : [
                0,
                -0.46166303753852844,
                0
            ]
        }
    ],
    "materials" : [
        {
            "doubleSided" : true,
            "name" : "Material.002",
            "normalTexture" : {
                "index" : 0
            },
            "pbrMetallicRoughness" : {
                "baseColorTexture" : {
                    "index" : 1
                },
                "metallicFactor" : 0,
                "metallicRoughnessTexture" : {
                    "index" : 2
                }
            }
        }
    ],
    "meshes" : [
        {
            "name" : "Sphere",
            "primitives" : [
                {
                    "attributes" : {
                        "POSITION" : 0,
                        "NORMAL" : 1,
                        "TEXCOORD_0" : 2
                    },
                    "indices" : 3,
                    "material" : 0
                }
            ]
        }
    ],
    "textures" : [
        {
            "sampler" : 0,
            "source" : 0
        },
        {
            "sampler" : 0,
            "source" : 1
        },
        {
            "sampler" : 0,
            "source" : 2
        }
    ],
    "images" : [
        {
            "mimeType" : "image/jpeg",
            "name" : "Leather024_4K_NormalGL",
            "uri" : "textures/Leather024_4K_NormalGL.jpg"
        },
        {
            "mimeType" : "image/jpeg",
            "name" : "Leather024_4K_Color",
            "uri" : "textures/Leather024_4K_Color.jpg"
        },
        {
            "mimeType" : "image/png",
            "name" : "Leather024_4K_Roughness",
            "uri" : "textures/Leather024_4K_Roughness.png"
        }
    ],
    "accessors" : [
        {
            "bufferView" : 0,
            "componentType" : 5126,
            "count" : 494017,
            "max" : [
                1.181731939315796,
                1.0528656244277954,
                1.1648446321487427
            ],
            "min" : [
                -0.9999990463256836,
                -1.0137251615524292,
                -0.9999987483024597
            ],
            "type" : "VEC3"
        },
        {
            "bufferView" : 1,
            "componentType" : 5126,
            "count" : 494017,
            "type" : "VEC3"
        },
        {
            "bufferView" : 2,
            "componentType" : 5126,
            "count" : 494017,
            "type" : "VEC2"
        },
        {
            "bufferView" : 3,
            "componentType" : 5125,
            "count" : 2949120,
            "type" : "SCALAR"
        }
    ],
    "bufferViews" : [
        {
            "buffer" : 0,
            "byteLength" : 5928204,
            "byteOffset" : 0
        },
        {
            "buffer" : 0,
            "byteLength" : 5928204,
            "byteOffset" : 5928204
        },
        {
            "buffer" : 0,
            "byteLength" : 3952136,
            "byteOffset" : 11856408
        },
        {
            "buffer" : 0,
            "byteLength" : 11796480,
            "byteOffset" : 15808544
        }
    ],
    "samplers" : [
        {
            "magFilter" : 9729,
            "minFilter" : 9987
        }
    ],
    "buffers" : [
        {
            "byteLength" : 27605024,
            "uri" : "chiclete.bin"
        }
    ]
}
